<svg width="902" height="340" viewBox="0 0 902 340" fill="none" xmlns="http://www.w3.org/2000/svg">
<path fill-rule="evenodd" clip-rule="evenodd" d="M555.5 116.054H592H836.5L862.5 142.054V160.554L844.5 178.554L797 131.054L749.5 178.554L702 131.054L654.5 178.554L607 131.054L555.5 183.5L512.5 166.554L485.5 193.554H434V224.554H323.5L300 204.054C300 203.652 300.325 202.721 300.839 201.247C302.878 195.403 307.899 181.011 307.5 157.054C307.1 133.054 302.333 116.649 300 111.447L323.5 89.5544H434V116.054H503.5H555.5Z" fill="url(#paint0_linear_42_4)"/>
<path d="M756 182.832V226.5H787.132V202C787.132 197.213 787.335 189.856 790.5 188.5C794 187 802.351 187.279 805.5 188.5C809.368 190 808.517 200.24 808.868 202V226.5H840V182.832L797.649 142L756 182.832Z" fill="url(#paint1_linear_42_4)"/>
<path d="M660 182.832V226.5H691.132V202C691.132 197.213 691.335 189.856 694.5 188.5C698 187 706.351 187.279 709.5 188.5C713.368 190 712.517 200.24 712.868 202V226.5H744V182.832L701.649 142L660 182.832Z" fill="url(#paint2_linear_42_4)"/>
<path d="M566 182.832V226.5H597.132V202C597.132 197.213 597.335 189.856 600.5 188.5C604 187 612.351 187.279 615.5 188.5C619.368 190 618.517 200.24 618.868 202V226.5H650V182.832L607.649 142L566 182.832Z" fill="url(#paint3_linear_42_4)"/>
<ellipse cx="154.5" cy="155" rx="154.5" ry="155" fill="url(#paint4_linear_42_4)"/>
<path d="M212.5 160.5C184.1 160.5 138.333 141.5 119 132C102.167 125.667 65.5001 112.2 53.5001 109C38.5001 105 18.0001 87 19.0001 80.5C19.8001 75.3 33.6667 58.6667 40 51C60.3333 27.6667 117.6 -13.5 190 4.50003C262.4 22.5 295 81.3334 302 109L323.5 90H433.5V116H555.5C539.667 117.833 501.5 123.6 475.5 132C443 142.5 373 132 333 139.5C293 147 248 160.5 212.5 160.5Z" fill="url(#paint5_linear_42_4)"/>
<circle cx="82.5" cy="154.5" r="43.5" fill="black"/>
<path d="M453.5 116V99H458V78H460V58.5H465V78H468.5V99H476V107.5H487.5V116H476H453.5Z" fill="url(#paint6_linear_42_4)"/>
<path d="M527 116V99H532.5V94H534.5V74.5H542V94H544.5V99H550.5V116H573.5H611V72.5H615V53H620L623.5 16.5L628 53H632.5V72.5H637V116H611H573.5H550.5H527Z" fill="url(#paint7_linear_42_4)"/>
<path d="M239.88 323.76L240.52 328.4H240.56L241.24 323.68L247 305H248.6L254.4 323.76L255.08 328.4H255.12L255.84 323.68L260.56 305H263.8L256 333.44H254.16L248.48 314.68L247.76 310.44H247.56L246.84 314.72L241.16 333.44H239.32L231.32 305H234.84L239.88 323.76ZM287.485 320.16H274.045V333H270.725V305H274.045V317.2H287.485V305H290.805V333H287.485V320.16ZM300.8 305H316.04V307.96H304.12V317.12H315.04V320.08H304.12V330.04H316.24V333H300.8V305ZM325.445 305.28C326.459 305.093 327.619 304.947 328.925 304.84C330.259 304.733 331.472 304.68 332.565 304.68C333.792 304.68 334.952 304.813 336.045 305.08C337.165 305.347 338.139 305.787 338.965 306.4C339.819 307.013 340.499 307.813 341.005 308.8C341.512 309.787 341.765 310.987 341.765 312.4C341.765 314.587 341.165 316.36 339.965 317.72C338.765 319.08 337.245 319.987 335.405 320.44L337.325 321.92L344.285 333H340.405L332.685 320.92L328.765 320.32V333H325.445V305.28ZM332.645 307.56C332.299 307.56 331.939 307.56 331.565 307.56C331.192 307.56 330.832 307.573 330.485 307.6C330.139 307.627 329.805 307.653 329.485 307.68C329.192 307.707 328.952 307.747 328.765 307.8V318.12H331.885C333.725 318.12 335.245 317.667 336.445 316.76C337.645 315.853 338.245 314.44 338.245 312.52C338.245 311.08 337.752 309.893 336.765 308.96C335.779 308.027 334.405 307.56 332.645 307.56ZM352.434 305H367.674V307.96H355.754V317.12H366.674V320.08H355.754V330.04H367.874V333H352.434V305ZM389.784 319C389.784 314.333 390.77 310.76 392.744 308.28C394.717 305.773 397.53 304.52 401.184 304.52C403.157 304.52 404.864 304.867 406.304 305.56C407.744 306.253 408.93 307.24 409.864 308.52C410.824 309.773 411.53 311.293 411.984 313.08C412.437 314.84 412.664 316.813 412.664 319C412.664 323.667 411.664 327.253 409.664 329.76C407.69 332.24 404.864 333.48 401.184 333.48C399.237 333.48 397.544 333.133 396.104 332.44C394.69 331.747 393.504 330.773 392.544 329.52C391.61 328.24 390.917 326.72 390.464 324.96C390.01 323.173 389.784 321.187 389.784 319ZM393.304 319C393.304 320.547 393.45 322.013 393.744 323.4C394.064 324.787 394.544 326.013 395.184 327.08C395.824 328.12 396.637 328.96 397.624 329.6C398.637 330.213 399.824 330.52 401.184 330.52C403.664 330.52 405.61 329.587 407.024 327.72C408.437 325.827 409.144 322.92 409.144 319C409.144 317.48 408.984 316.027 408.664 314.64C408.37 313.227 407.89 312 407.224 310.96C406.584 309.893 405.757 309.053 404.744 308.44C403.757 307.8 402.57 307.48 401.184 307.48C398.73 307.48 396.797 308.427 395.384 310.32C393.997 312.187 393.304 315.08 393.304 319ZM437.653 307.96H428.933V333H425.613V307.96H416.893V305H437.653V307.96ZM463.822 307.96H455.102V333H451.782V307.96H443.062V305H463.822V307.96ZM481.754 325.24H471.434L468.634 333H465.354L475.954 304.56H477.474L488.114 333H484.634L481.754 325.24ZM472.514 322.36H480.754L477.634 313.84L476.634 309.6H476.594L475.594 313.92L472.514 322.36ZM499.38 323.76L500.02 328.4H500.06L500.74 323.68L506.5 305H508.1L513.9 323.76L514.58 328.4H514.62L515.34 323.68L520.06 305H523.3L515.5 333.44H513.66L507.98 314.68L507.26 310.44H507.06L506.34 314.72L500.66 333.44H498.82L490.82 305H494.34L499.38 323.76ZM542.412 325.24H532.092L529.292 333H526.012L536.612 304.56H538.132L548.772 333H545.292L542.412 325.24ZM533.172 322.36H541.412L538.292 313.84L537.292 309.6H537.252L536.252 313.92L533.172 322.36ZM584.794 311.4C584.794 312.067 584.687 312.747 584.474 313.44C584.261 314.133 583.941 314.787 583.514 315.4C583.087 315.987 582.541 316.507 581.874 316.96C581.207 317.413 580.421 317.76 579.514 318V318.16C580.314 318.293 581.074 318.52 581.794 318.84C582.541 319.16 583.194 319.6 583.754 320.16C584.314 320.72 584.767 321.4 585.114 322.2C585.461 323 585.634 323.947 585.634 325.04C585.634 326.48 585.327 327.733 584.714 328.8C584.127 329.84 583.341 330.693 582.354 331.36C581.394 332.027 580.287 332.52 579.034 332.84C577.781 333.16 576.501 333.32 575.194 333.32C574.741 333.32 574.207 333.32 573.594 333.32C572.981 333.32 572.341 333.293 571.674 333.24C571.007 333.213 570.341 333.16 569.674 333.08C569.007 333.027 568.421 332.933 567.914 332.8V305.24C568.901 305.08 570.047 304.947 571.354 304.84C572.661 304.733 574.087 304.68 575.634 304.68C576.674 304.68 577.727 304.773 578.794 304.96C579.887 305.12 580.874 305.453 581.754 305.96C582.634 306.44 583.354 307.12 583.914 308C584.501 308.88 584.794 310.013 584.794 311.4ZM575.514 330.44C576.367 330.44 577.194 330.347 577.994 330.16C578.794 329.947 579.501 329.627 580.114 329.2C580.727 328.747 581.207 328.2 581.554 327.56C581.927 326.92 582.114 326.16 582.114 325.28C582.114 324.187 581.887 323.307 581.434 322.64C581.007 321.973 580.434 321.453 579.714 321.08C579.021 320.707 578.234 320.453 577.354 320.32C576.474 320.187 575.594 320.12 574.714 320.12H571.234V330.16C571.421 330.213 571.687 330.253 572.034 330.28C572.381 330.307 572.754 330.333 573.154 330.36C573.554 330.387 573.967 330.413 574.394 330.44C574.821 330.44 575.194 330.44 575.514 330.44ZM573.314 317.32C573.767 317.32 574.314 317.307 574.954 317.28C575.594 317.253 576.127 317.213 576.554 317.16C577.194 316.947 577.794 316.693 578.354 316.4C578.914 316.08 579.407 315.72 579.834 315.32C580.287 314.893 580.634 314.413 580.874 313.88C581.141 313.32 581.274 312.72 581.274 312.08C581.274 311.2 581.101 310.48 580.754 309.92C580.434 309.333 579.994 308.867 579.434 308.52C578.874 308.173 578.234 307.933 577.514 307.8C576.794 307.64 576.061 307.56 575.314 307.56C574.434 307.56 573.621 307.587 572.874 307.64C572.154 307.667 571.607 307.72 571.234 307.8V317.32H573.314ZM594.473 305H609.713V307.96H597.793V317.12H608.713V320.08H597.793V330.04H609.913V333H594.473V305ZM637.039 331.84C636.239 332.453 635.225 332.88 633.999 333.12C632.772 333.36 631.465 333.48 630.079 333.48C628.399 333.48 626.825 333.2 625.359 332.64C623.892 332.053 622.612 331.173 621.519 330C620.425 328.827 619.559 327.333 618.919 325.52C618.279 323.68 617.959 321.507 617.959 319C617.959 316.387 618.305 314.173 618.999 312.36C619.719 310.52 620.652 309.027 621.799 307.88C622.972 306.707 624.279 305.853 625.719 305.32C627.159 304.787 628.625 304.52 630.119 304.52C631.719 304.52 633.025 304.613 634.039 304.8C635.052 304.96 635.919 305.187 636.639 305.48L635.839 308.4C634.559 307.787 632.732 307.48 630.359 307.48C629.265 307.48 628.185 307.68 627.119 308.08C626.052 308.48 625.092 309.133 624.239 310.04C623.412 310.947 622.745 312.133 622.239 313.6C621.732 315.067 621.479 316.867 621.479 319C621.479 320.92 621.719 322.6 622.199 324.04C622.679 325.48 623.332 326.68 624.159 327.64C625.012 328.6 625.999 329.32 627.119 329.8C628.265 330.28 629.505 330.52 630.839 330.52C632.039 330.52 633.079 330.4 633.959 330.16C634.865 329.92 635.625 329.613 636.239 329.24L637.039 331.84ZM642.956 319C642.956 314.333 643.942 310.76 645.916 308.28C647.889 305.773 650.702 304.52 654.356 304.52C656.329 304.52 658.036 304.867 659.476 305.56C660.916 306.253 662.102 307.24 663.036 308.52C663.996 309.773 664.702 311.293 665.156 313.08C665.609 314.84 665.836 316.813 665.836 319C665.836 323.667 664.836 327.253 662.836 329.76C660.862 332.24 658.036 333.48 654.356 333.48C652.409 333.48 650.716 333.133 649.276 332.44C647.862 331.747 646.676 330.773 645.716 329.52C644.782 328.24 644.089 326.72 643.636 324.96C643.182 323.173 642.956 321.187 642.956 319ZM646.476 319C646.476 320.547 646.622 322.013 646.916 323.4C647.236 324.787 647.716 326.013 648.356 327.08C648.996 328.12 649.809 328.96 650.796 329.6C651.809 330.213 652.996 330.52 654.356 330.52C656.836 330.52 658.782 329.587 660.196 327.72C661.609 325.827 662.316 322.92 662.316 319C662.316 317.48 662.156 316.027 661.836 314.64C661.542 313.227 661.062 312 660.396 310.96C659.756 309.893 658.929 309.053 657.916 308.44C656.929 307.8 655.742 307.48 654.356 307.48C651.902 307.48 649.969 308.427 648.556 310.32C647.169 312.187 646.476 315.08 646.476 319ZM696.179 314.2L696.579 310H696.379L694.859 313.84L687.579 326.48H686.579L678.859 313.8L677.419 310H677.219L677.779 314.16V333H674.659V305H677.139L685.899 319.32L687.219 322.44H687.299L688.539 319.24L696.899 305H699.499V333H696.179V314.2ZM709.5 305H724.74V307.96H712.82V317.12H723.74V320.08H712.82V330.04H724.94V333H709.5V305ZM746.785 325.88C746.785 324.76 746.452 323.853 745.785 323.16C745.119 322.44 744.279 321.813 743.265 321.28C742.279 320.72 741.199 320.2 740.025 319.72C738.852 319.24 737.759 318.667 736.745 318C735.759 317.307 734.932 316.467 734.265 315.48C733.599 314.467 733.265 313.187 733.265 311.64C733.265 309.453 734.025 307.72 735.545 306.44C737.065 305.16 739.225 304.52 742.025 304.52C743.652 304.52 745.132 304.64 746.465 304.88C747.799 305.12 748.839 305.427 749.585 305.8L748.585 308.72C747.972 308.427 747.065 308.147 745.865 307.88C744.692 307.613 743.359 307.48 741.865 307.48C740.105 307.48 738.785 307.88 737.905 308.68C737.025 309.453 736.585 310.373 736.585 311.44C736.585 312.48 736.919 313.347 737.585 314.04C738.252 314.733 739.079 315.36 740.065 315.92C741.079 316.453 742.172 316.987 743.345 317.52C744.519 318.053 745.599 318.68 746.585 319.4C747.599 320.093 748.439 320.933 749.105 321.92C749.772 322.907 750.105 324.133 750.105 325.6C750.105 326.8 749.892 327.88 749.465 328.84C749.039 329.8 748.412 330.627 747.585 331.32C746.759 332.013 745.759 332.547 744.585 332.92C743.412 333.293 742.079 333.48 740.585 333.48C738.585 333.48 736.932 333.32 735.625 333C734.319 332.707 733.305 332.373 732.585 332L733.705 329C734.319 329.347 735.225 329.693 736.425 330.04C737.625 330.36 738.972 330.52 740.465 330.52C741.345 330.52 742.172 330.44 742.945 330.28C743.719 330.093 744.385 329.813 744.945 329.44C745.505 329.04 745.945 328.547 746.265 327.96C746.612 327.373 746.785 326.68 746.785 325.88ZM777.408 321.88L768.168 305H772.048L778.608 317.24L779.288 319.68H779.328L780.048 317.16L786.328 305H789.888L780.728 321.84V333H777.408V321.88ZM793.953 319C793.953 314.333 794.939 310.76 796.913 308.28C798.886 305.773 801.699 304.52 805.353 304.52C807.326 304.52 809.033 304.867 810.473 305.56C811.913 306.253 813.099 307.24 814.033 308.52C814.993 309.773 815.699 311.293 816.153 313.08C816.606 314.84 816.833 316.813 816.833 319C816.833 323.667 815.833 327.253 813.833 329.76C811.859 332.24 809.033 333.48 805.353 333.48C803.406 333.48 801.713 333.133 800.273 332.44C798.859 331.747 797.673 330.773 796.713 329.52C795.779 328.24 795.086 326.72 794.633 324.96C794.179 323.173 793.953 321.187 793.953 319ZM797.473 319C797.473 320.547 797.619 322.013 797.913 323.4C798.233 324.787 798.713 326.013 799.353 327.08C799.993 328.12 800.806 328.96 801.793 329.6C802.806 330.213 803.993 330.52 805.353 330.52C807.833 330.52 809.779 329.587 811.193 327.72C812.606 325.827 813.313 322.92 813.313 319C813.313 317.48 813.153 316.027 812.833 314.64C812.539 313.227 812.059 312 811.393 310.96C810.753 309.893 809.926 309.053 808.913 308.44C807.926 307.8 806.739 307.48 805.353 307.48C802.899 307.48 800.966 308.427 799.553 310.32C798.166 312.187 797.473 315.08 797.473 319ZM841.736 305H844.936V323.68C844.936 325.36 844.71 326.813 844.256 328.04C843.83 329.267 843.203 330.28 842.376 331.08C841.576 331.853 840.603 332.427 839.456 332.8C838.31 333.173 837.043 333.36 835.656 333.36C832.35 333.36 829.856 332.613 828.176 331.12C826.496 329.627 825.656 327.36 825.656 324.32V305H828.976V322.76C828.976 324.173 829.11 325.373 829.376 326.36C829.67 327.32 830.096 328.107 830.656 328.72C831.216 329.307 831.91 329.733 832.736 330C833.59 330.267 834.576 330.4 835.696 330.4C837.856 330.4 839.403 329.813 840.336 328.64C841.27 327.44 841.736 325.48 841.736 322.76V305ZM854.95 305.28C855.963 305.093 857.123 304.947 858.43 304.84C859.763 304.733 860.977 304.68 862.07 304.68C863.297 304.68 864.457 304.813 865.55 305.08C866.67 305.347 867.643 305.787 868.47 306.4C869.323 307.013 870.003 307.813 870.51 308.8C871.017 309.787 871.27 310.987 871.27 312.4C871.27 314.587 870.67 316.36 869.47 317.72C868.27 319.08 866.75 319.987 864.91 320.44L866.83 321.92L873.79 333H869.91L862.19 320.92L858.27 320.32V333H854.95V305.28ZM862.15 307.56C861.803 307.56 861.443 307.56 861.07 307.56C860.697 307.56 860.337 307.573 859.99 307.6C859.643 307.627 859.31 307.653 858.99 307.68C858.697 307.707 858.457 307.747 858.27 307.8V318.12H861.39C863.23 318.12 864.75 317.667 865.95 316.76C867.15 315.853 867.75 314.44 867.75 312.52C867.75 311.08 867.257 309.893 866.27 308.96C865.283 308.027 863.91 307.56 862.15 307.56ZM894.579 325.88C894.579 324.76 894.246 323.853 893.579 323.16C892.912 322.44 892.072 321.813 891.059 321.28C890.072 320.72 888.992 320.2 887.819 319.72C886.646 319.24 885.552 318.667 884.539 318C883.552 317.307 882.726 316.467 882.059 315.48C881.392 314.467 881.059 313.187 881.059 311.64C881.059 309.453 881.819 307.72 883.339 306.44C884.859 305.16 887.019 304.52 889.819 304.52C891.446 304.52 892.926 304.64 894.259 304.88C895.592 305.12 896.632 305.427 897.379 305.8L896.379 308.72C895.766 308.427 894.859 308.147 893.659 307.88C892.486 307.613 891.152 307.48 889.659 307.48C887.899 307.48 886.579 307.88 885.699 308.68C884.819 309.453 884.379 310.373 884.379 311.44C884.379 312.48 884.712 313.347 885.379 314.04C886.046 314.733 886.872 315.36 887.859 315.92C888.872 316.453 889.966 316.987 891.139 317.52C892.312 318.053 893.392 318.68 894.379 319.4C895.392 320.093 896.232 320.933 896.899 321.92C897.566 322.907 897.899 324.133 897.899 325.6C897.899 326.8 897.686 327.88 897.259 328.84C896.832 329.8 896.206 330.627 895.379 331.32C894.552 332.013 893.552 332.547 892.379 332.92C891.206 333.293 889.872 333.48 888.379 333.48C886.379 333.48 884.726 333.32 883.419 333C882.112 332.707 881.099 332.373 880.379 332L881.499 329C882.112 329.347 883.019 329.693 884.219 330.04C885.419 330.36 886.766 330.52 888.259 330.52C889.139 330.52 889.966 330.44 890.739 330.28C891.512 330.093 892.179 329.813 892.739 329.44C893.299 329.04 893.739 328.547 894.059 327.96C894.406 327.373 894.579 326.68 894.579 325.88Z" fill="#F6E17B"/>
<path d="M298.66 260.5C298.66 252.333 300.457 246.057 304.05 241.67C307.643 237.237 312.777 235.02 319.45 235.02C322.95 235.02 326.007 235.627 328.62 236.84C331.233 238.053 333.403 239.78 335.13 242.02C336.857 244.26 338.14 246.943 338.98 250.07C339.82 253.197 340.24 256.673 340.24 260.5C340.24 268.667 338.42 274.967 334.78 279.4C331.187 283.787 326.077 285.98 319.45 285.98C315.903 285.98 312.823 285.373 310.21 284.16C307.597 282.947 305.427 281.22 303.7 278.98C302.02 276.74 300.76 274.057 299.92 270.93C299.08 267.803 298.66 264.327 298.66 260.5ZM308.74 260.5C308.74 262.973 308.95 265.26 309.37 267.36C309.79 269.413 310.42 271.187 311.26 272.68C312.147 274.173 313.267 275.34 314.62 276.18C315.973 277.02 317.583 277.44 319.45 277.44C322.857 277.44 325.493 276.11 327.36 273.45C329.227 270.79 330.16 266.473 330.16 260.5C330.16 258.12 329.95 255.903 329.53 253.85C329.157 251.797 328.55 250 327.71 248.46C326.87 246.92 325.773 245.73 324.42 244.89C323.067 244.003 321.41 243.56 319.45 243.56C316.043 243.56 313.407 244.937 311.54 247.69C309.673 250.397 308.74 254.667 308.74 260.5ZM361.352 263.37L362.262 272.05H362.542L363.522 263.23L372.062 236H378.362L386.762 263.37L387.742 272.05H388.022L389.072 263.23L395.022 236H404.752L391.242 285.35H384.802L376.052 258.12L374.862 250.63H374.512L373.322 258.19L364.642 285.35H357.852L344.412 236H354.842L361.352 263.37ZM424.653 259.45L420.803 251.75H420.453L421.573 259.45V285H412.473V235.65H419.473L438.023 261.76L441.733 269.25H442.083L440.963 261.76V236H450.063V285.35H443.063L424.653 259.45ZM462.959 236H472.549V285H462.959V236ZM497.62 259.45L493.77 251.75H493.42L494.54 259.45V285H485.44V235.65H492.44L510.99 261.76L514.7 269.25H515.05L513.93 261.76V236H523.03V285.35H516.03L497.62 259.45ZM552.236 259.45H570.506V281.29C568.546 282.923 566.189 284.113 563.436 284.86C560.729 285.607 558.046 285.98 555.386 285.98C552.259 285.98 549.343 285.49 546.636 284.51C543.976 283.53 541.666 282.013 539.706 279.96C537.746 277.86 536.206 275.2 535.086 271.98C533.966 268.76 533.406 264.933 533.406 260.5C533.406 255.88 534.059 251.96 535.366 248.74C536.719 245.473 538.469 242.837 540.616 240.83C542.809 238.777 545.259 237.307 547.966 236.42C550.673 235.487 553.426 235.02 556.226 235.02C559.026 235.02 561.476 235.23 563.576 235.65C565.723 236.07 567.426 236.513 568.686 236.98L566.726 245.03C565.559 244.563 564.253 244.213 562.806 243.98C561.359 243.7 559.516 243.56 557.276 243.56C555.269 243.56 553.426 243.863 551.746 244.47C550.066 245.077 548.596 246.08 547.336 247.48C546.123 248.833 545.166 250.583 544.466 252.73C543.813 254.877 543.486 257.49 543.486 260.57C543.486 263.51 543.813 266.053 544.466 268.2C545.119 270.3 546.029 272.05 547.196 273.45C548.363 274.803 549.716 275.807 551.256 276.46C552.843 277.113 554.523 277.44 556.296 277.44C557.509 277.44 558.699 277.3 559.866 277.02C561.033 276.693 562.013 276.227 562.806 275.62V266.38L552.236 265.26V259.45ZM579.562 260.5C579.562 252.333 581.359 246.057 584.952 241.67C588.546 237.237 593.679 235.02 600.352 235.02C603.852 235.02 606.909 235.627 609.522 236.84C612.136 238.053 614.306 239.78 616.032 242.02C617.759 244.26 619.042 246.943 619.882 250.07C620.722 253.197 621.142 256.673 621.142 260.5C621.142 268.667 619.322 274.967 615.682 279.4C612.089 283.787 606.979 285.98 600.352 285.98C596.806 285.98 593.726 285.373 591.112 284.16C588.499 282.947 586.329 281.22 584.602 278.98C582.922 276.74 581.662 274.057 580.822 270.93C579.982 267.803 579.562 264.327 579.562 260.5ZM589.642 260.5C589.642 262.973 589.852 265.26 590.272 267.36C590.692 269.413 591.322 271.187 592.162 272.68C593.049 274.173 594.169 275.34 595.522 276.18C596.876 277.02 598.486 277.44 600.352 277.44C603.759 277.44 606.396 276.11 608.262 273.45C610.129 270.79 611.062 266.473 611.062 260.5C611.062 258.12 610.852 255.903 610.432 253.85C610.059 251.797 609.452 250 608.612 248.46C607.772 246.92 606.676 245.73 605.322 244.89C603.969 244.003 602.312 243.56 600.352 243.56C596.946 243.56 594.309 244.937 592.442 247.69C590.576 250.397 589.642 254.667 589.642 260.5ZM663.553 244.54H649.273V285H639.683V244.54H625.333V236H663.553V244.54ZM708.205 244.54H693.925V285H684.335V244.54H669.985V236H708.205V244.54ZM735.381 274.15H720.331L716.621 285H707.031L724.671 235.65H731.741L749.381 285H739.301L735.381 274.15ZM722.781 266.45H733.281L729.641 255.53L728.171 247.83H727.821L726.351 255.6L722.781 266.45ZM766.778 263.37L767.688 272.05H767.968L768.948 263.23L777.488 236H783.788L792.188 263.37L793.168 272.05H793.448L794.498 263.23L800.448 236H810.178L796.668 285.35H790.228L781.478 258.12L780.288 250.63H779.938L778.748 258.19L770.068 285.35H763.278L749.838 236H760.268L766.778 263.37ZM838.973 274.15H823.923L820.213 285H810.623L828.263 235.65H835.333L852.973 285H842.893L838.973 274.15ZM826.373 266.45H836.873L833.233 255.53L831.763 247.83H831.413L829.943 255.6L826.373 266.45Z" fill="white"/>
<path d="M653 30H622V11H653V30Z" fill="white"/>
<path d="M629 30V11H622V30H629Z" fill="#FF0000"/>
<path d="M653 30V11H646V30H653Z" fill="#FF0000"/>
<path d="M637.185 27L637.343 24.2161C637.345 24.1703 637.336 24.1247 637.317 24.0825C637.297 24.0403 637.268 24.0026 637.231 23.9723C637.194 23.942 637.149 23.9197 637.102 23.9072C637.054 23.8947 637.004 23.8922 636.955 23.9L633.953 24.3871L634.358 23.3548C634.375 23.3138 634.377 23.269 634.364 23.2267C634.352 23.1845 634.325 23.147 634.288 23.1194L631 20.6613L631.741 20.3419C631.791 20.3201 631.831 20.2822 631.852 20.2352C631.874 20.1883 631.877 20.1356 631.86 20.0871L631.21 18.2419L633.104 18.6129C633.155 18.6228 633.209 18.616 633.255 18.5936C633.302 18.5713 633.338 18.5348 633.359 18.4903L633.726 17.6935L635.204 19.1581C635.238 19.191 635.282 19.2129 635.331 19.2205C635.379 19.2281 635.429 19.221 635.473 19.2003C635.516 19.1796 635.552 19.1464 635.573 19.1056C635.595 19.0648 635.601 19.0187 635.592 18.9742L634.879 15.5806L636.022 16.1903C636.049 16.2048 636.078 16.2141 636.109 16.2176C636.14 16.221 636.171 16.2186 636.201 16.2104C636.231 16.2023 636.259 16.1885 636.283 16.1701C636.306 16.1517 636.326 16.1289 636.34 16.1032L637.5 14L638.66 16.1032C638.674 16.1289 638.694 16.1517 638.717 16.1701C638.741 16.1885 638.769 16.2023 638.799 16.2104C638.829 16.2186 638.86 16.221 638.891 16.2176C638.922 16.2141 638.951 16.2048 638.978 16.1903L640.121 15.5806L639.408 18.9742C639.399 19.0187 639.405 19.0648 639.427 19.1056C639.448 19.1464 639.484 19.1796 639.527 19.2003C639.571 19.221 639.621 19.2281 639.669 19.2205C639.718 19.2129 639.762 19.191 639.796 19.1581L641.274 17.6935L641.641 18.4903C641.662 18.5348 641.698 18.5713 641.745 18.5936C641.791 18.616 641.845 18.6228 641.896 18.6129L643.79 18.2419L643.14 20.0871C643.123 20.1356 643.126 20.1883 643.148 20.2352C643.169 20.2822 643.209 20.3201 643.259 20.3419L644 20.6613L640.712 23.1194C640.675 23.147 640.648 23.1845 640.636 23.2267C640.623 23.269 640.625 23.3138 640.642 23.3548L641.047 24.3871L638.045 23.9C637.996 23.8922 637.946 23.8947 637.898 23.9072C637.851 23.9197 637.806 23.942 637.769 23.9723C637.732 24.0026 637.703 24.0403 637.683 24.0825C637.664 24.1247 637.655 24.1703 637.657 24.2161L637.815 27H637.185Z" fill="#FF0000"/>
<path d="M515 116H507V108.364H509.286V101.818H510.429V98H511.571V101.818H512.714V108.364H515V116Z" fill="url(#paint8_linear_42_4)"/>
<path d="M608 116H599V107.091H601.571V99.4545H602.857V95H604.143V99.4545H605.429V107.091H608V116Z" fill="url(#paint9_linear_42_4)"/>
<path d="M785 116H772V104.561L775.714 102V94.7565L777.571 93.7037L778.5 88L779.429 93.7037L781.286 94.7565V102L785 104.561V112.37V116Z" fill="url(#paint10_linear_42_4)"/>
<path d="M596 116H583V104.561L586.714 102V94.7565L588.571 93.7037L589.5 88L590.429 93.7037L592.286 94.7565V102L596 104.561V112.37V116Z" fill="url(#paint11_linear_42_4)"/>
<path d="M760.722 117H747V105.545H750.921V95.7273H752.881V90H754.841V95.7273H756.802V105.545H760.722V113.365H766V117H760.722Z" fill="url(#paint12_linear_42_4)"/>
<path d="M736 116H716.882H709V110.75H716.882V99.4545H722.345V85.2727H725.076V77H727.807V85.2727H730.538V99.4545H736V110.75V116Z" fill="url(#paint13_linear_42_4)"/>
<path d="M565 116H552V104.97H555.714V95.5152H557.571V90H559.429V95.5152H561.286V104.97H565V112.5H570V116H565Z" fill="url(#paint14_linear_42_4)"/>
<path d="M699 116H686V104.97H689.714V95.5152H691.571V90H693.429V95.5152H695.286V104.97H699V112.5H704V116H699Z" fill="url(#paint15_linear_42_4)"/>
<path d="M666 116H653V104.97H656.714V95.5152H658.571V90H660.429V95.5152H662.286V104.97H666V112.5H671V116H666Z" fill="url(#paint16_linear_42_4)"/>
<path d="M580 116H573V108.788H575V102.606H576V99H577V102.606H578V108.788H580V116Z" fill="url(#paint17_linear_42_4)"/>
<path d="M682 116H674V108.364H676.286V101.818H677.429V98H678.571V101.818H679.714V108.364H682V116Z" fill="url(#paint18_linear_42_4)"/>
<path d="M648 116H641V108.788H643V102.606H644V99H645V102.606H646V108.788H648V116Z" fill="url(#paint19_linear_42_4)"/>
<defs>
<linearGradient id="paint0_linear_42_4" x1="440" y1="224.554" x2="581.25" y2="225.054" gradientUnits="userSpaceOnUse">
<stop stop-color="#F5E07A"/>
<stop offset="1" stop-color="#DCB75A"/>
</linearGradient>
<linearGradient id="paint1_linear_42_4" x1="790.287" y1="179.312" x2="828.609" y2="207.427" gradientUnits="userSpaceOnUse">
<stop stop-color="#EACE6C"/>
<stop offset="1" stop-color="#E2C262"/>
</linearGradient>
<linearGradient id="paint2_linear_42_4" x1="694.287" y1="179.312" x2="732.609" y2="207.427" gradientUnits="userSpaceOnUse">
<stop stop-color="#EACE6C"/>
<stop offset="1" stop-color="#E2C262"/>
</linearGradient>
<linearGradient id="paint3_linear_42_4" x1="600.287" y1="179.312" x2="638.609" y2="207.427" gradientUnits="userSpaceOnUse">
<stop stop-color="#EACE6C"/>
<stop offset="1" stop-color="#E2C262"/>
</linearGradient>
<linearGradient id="paint4_linear_42_4" x1="-1.89393e-07" y1="69.0949" x2="309" y2="240.905" gradientUnits="userSpaceOnUse">
<stop offset="0.274038" stop-color="#C89740"/>
<stop offset="0.894231" stop-color="#F8E57E"/>
</linearGradient>
<linearGradient id="paint5_linear_42_4" x1="56.2062" y1="160.5" x2="518.259" y2="0.0712721" gradientUnits="userSpaceOnUse">
<stop stop-color="#C89740"/>
<stop offset="1" stop-color="#F8E38B"/>
</linearGradient>
<linearGradient id="paint6_linear_42_4" x1="558.75" y1="29" x2="558.75" y2="116" gradientUnits="userSpaceOnUse">
<stop offset="0.139423" stop-color="#F2DB76"/>
<stop offset="0.879808" stop-color="#DCB75A"/>
</linearGradient>
<linearGradient id="paint7_linear_42_4" x1="558.75" y1="29" x2="558.75" y2="116" gradientUnits="userSpaceOnUse">
<stop offset="0.139423" stop-color="#F2DB76"/>
<stop offset="0.879808" stop-color="#DCB75A"/>
</linearGradient>
<linearGradient id="paint8_linear_42_4" x1="566.143" y1="130.182" x2="566.143" y2="225.091" gradientUnits="userSpaceOnUse">
<stop offset="0.139423" stop-color="#E8CA6A"/>
<stop offset="0.879808" stop-color="#DCB75A"/>
</linearGradient>
<linearGradient id="paint9_linear_42_4" x1="665.536" y1="132.545" x2="665.536" y2="243.273" gradientUnits="userSpaceOnUse">
<stop offset="0.139423" stop-color="#E8CA6A"/>
<stop offset="0.879808" stop-color="#DCB75A"/>
</linearGradient>
<linearGradient id="paint10_linear_42_4" x1="868.107" y1="137.244" x2="868.107" y2="279.412" gradientUnits="userSpaceOnUse">
<stop offset="0.139423" stop-color="#E8CA6A"/>
<stop offset="0.879808" stop-color="#DCB75A"/>
</linearGradient>
<linearGradient id="paint11_linear_42_4" x1="679.107" y1="137.244" x2="679.107" y2="279.412" gradientUnits="userSpaceOnUse">
<stop offset="0.139423" stop-color="#DCB75A"/>
<stop offset="0.879808" stop-color="#DCB75A"/>
</linearGradient>
<linearGradient id="paint12_linear_42_4" x1="848.446" y1="138.273" x2="848.446" y2="280.636" gradientUnits="userSpaceOnUse">
<stop offset="0.139323" stop-color="#DCB75A"/>
<stop offset="0.139423" stop-color="#E8CA6A"/>
</linearGradient>
<linearGradient id="paint13_linear_42_4" x1="858.216" y1="146.727" x2="858.216" y2="352.364" gradientUnits="userSpaceOnUse">
<stop offset="0.139423" stop-color="#CFA14A"/>
<stop offset="0.879808" stop-color="#DCB75A"/>
</linearGradient>
<linearGradient id="paint14_linear_42_4" x1="648.107" y1="136.485" x2="648.107" y2="273.576" gradientUnits="userSpaceOnUse">
<stop offset="0.139423" stop-color="#E8CA6A"/>
<stop offset="0.879808" stop-color="#DCB75A"/>
</linearGradient>
<linearGradient id="paint15_linear_42_4" x1="782.107" y1="136.485" x2="782.107" y2="273.576" gradientUnits="userSpaceOnUse">
<stop offset="0.139423" stop-color="#E8CA6A"/>
<stop offset="0.879808" stop-color="#DCB75A"/>
</linearGradient>
<linearGradient id="paint16_linear_42_4" x1="749.107" y1="136.485" x2="749.107" y2="273.576" gradientUnits="userSpaceOnUse">
<stop offset="0.139423" stop-color="#DCB75A"/>
<stop offset="0.879808" stop-color="#DCB75A"/>
</linearGradient>
<linearGradient id="paint17_linear_42_4" x1="624.75" y1="129.394" x2="624.75" y2="219.03" gradientUnits="userSpaceOnUse">
<stop offset="0.139423" stop-color="#E8CA6A"/>
<stop offset="0.879808" stop-color="#DCB75A"/>
</linearGradient>
<linearGradient id="paint18_linear_42_4" x1="733.143" y1="130.182" x2="733.143" y2="225.091" gradientUnits="userSpaceOnUse">
<stop offset="0.139423" stop-color="#C89740"/>
<stop offset="0.879808" stop-color="#DCB75A"/>
</linearGradient>
<linearGradient id="paint19_linear_42_4" x1="692.75" y1="129.394" x2="692.75" y2="219.03" gradientUnits="userSpaceOnUse">
<stop offset="0.139423" stop-color="#E8CA6A"/>
<stop offset="0.879808" stop-color="#DCB75A"/>
</linearGradient>
</defs>
</svg>
